<svg width="927" height="905" viewBox="0 0 927 905" fill="none" xmlns="http://www.w3.org/2000/svg">
<g style="mix-blend-mode:darken" filter="url(#filter0_b_687_162)">
<path d="M319.747 9.3031C319.747 37.6352 310.936 54.9727 284.967 78.2303C262.708 98.1051 245.319 108.677 222.596 115.654C195.468 124.111 166.948 120.517 134.951 104.659C121.735 98.1051 120.575 97.8936 117.329 101.065C115.474 102.968 105.272 118.826 94.3748 136.375C57.0446 196.422 3.94768 280.149 1.16531 283.109C-0.689609 285.435 -0.457745 286.492 2.78836 288.395C41.7416 309.961 51.7118 318.63 60.7545 339.773C72.5796 367.471 68.6379 408.278 51.7118 431.113C48.4657 435.341 42.9009 442.953 39.1911 448.027C25.9748 465.999 27.8297 482.279 51.0162 549.938C113.62 732.193 235.58 881.677 424.782 1007.27C458.866 1029.68 462.112 1030.31 485.762 1015.51C542.801 980.416 590.797 943.204 644.357 893.094C767.709 777.863 845.847 652.695 885.728 507.44C895.466 471.708 895.466 464.096 885.496 449.93C857.441 409.546 849.789 381.849 858.6 352.036C866.947 323.07 891.988 299.39 920.74 293.047L927 291.778L906.596 259.429C895.466 241.88 878.077 214.393 868.106 198.747C858.136 183.101 840.051 154.558 827.994 135.317C815.937 116.077 805.503 99.7965 804.576 98.9508C803.648 98.1051 794.142 101.488 783.012 106.562C739.885 126.226 706.497 124.746 667.08 100.854C646.212 88.3791 620.939 64.6986 613.519 50.744C607.027 38.2695 602.622 21.5662 602.622 8.24591V0H461.184H319.747V9.3031ZM399.74 105.717C399.74 109.522 398.117 111.214 393.944 112.06C388.611 113.117 388.147 114.385 387.451 126.649C386.988 137.22 385.365 142.083 380.264 148.849C370.757 161.746 368.439 169.781 368.439 191.136C368.439 211.856 366.815 216.508 360.091 215.239C354.759 214.393 352.904 206.359 353.599 186.484C354.295 164.284 355.918 158.786 364.961 144.832C371.917 134.472 373.076 130.877 373.076 119.46C373.076 100.008 373.771 98.9508 387.915 99.7965C398.813 100.431 399.74 100.854 399.74 105.717ZM544.192 101.911C545.815 103.391 546.974 110.157 546.974 117.346V130.243L560.886 141.237C570.856 149.483 576.885 156.461 582.913 167.878C590.565 181.621 591.724 186.061 593.579 207.839C596.825 243.994 603.317 265.137 620.012 291.778C633.923 314.401 622.098 331.527 594.043 329.413C583.841 328.567 580.131 327.087 573.407 321.167C569.001 317.15 562.973 310.384 560.19 305.733L555.089 297.698L553.93 338.505L552.771 379.523L547.206 380.157C544.192 380.58 540.714 379.734 539.786 378.043C537.236 374.448 537.236 251.394 539.786 247.8C540.714 246.108 544.192 245.263 546.974 245.686C551.611 246.108 552.771 248.223 555.321 259.429C558.567 274.018 574.334 303.407 582.913 310.807C589.405 316.516 603.549 317.15 609.346 312.076C612.824 308.904 612.824 308.058 608.65 301.715C590.333 273.383 582.681 250.76 579.435 215.662C578.044 202.342 575.957 187.964 574.334 183.947C569.929 171.261 556.017 154.135 544.887 147.58C534.222 141.449 534.222 141.449 533.062 127.283L531.903 113.117L474.169 112.694C442.403 112.271 415.275 111.214 414.116 110.157C412.957 109.1 412.725 106.351 413.652 103.814C415.043 99.3737 416.203 99.3737 478.342 99.3737C524.252 99.3737 542.105 100.008 544.192 101.911ZM486.226 130.454C485.53 136.374 485.53 136.374 464.662 137.009C447.504 137.432 443.331 137.009 441.012 134.049C434.984 126.649 439.621 124.746 463.967 124.746H486.921L486.226 130.454ZM479.502 145.466C483.211 151.809 478.11 154.346 461.88 154.346C448.2 154.346 447.272 154.135 447.272 149.483C447.272 142.295 448.896 141.66 463.735 141.66C474.401 141.66 477.647 142.506 479.502 145.466ZM368.439 263.234C369.598 300.658 371.221 307.213 380.032 309.75C386.524 311.653 395.103 306.155 397.885 298.755C399.045 295.584 400.436 286.704 400.668 279.092C401.363 263.869 403.45 260.063 409.71 263.446C412.957 265.56 413.884 270.635 414.811 298.755C415.739 327.087 416.666 332.162 420.376 335.968C425.941 341.676 432.897 341.676 439.621 335.756C444.49 331.527 444.954 329.413 444.954 308.481C444.954 281.841 447.272 274.229 454.924 275.286C460.025 275.92 460.025 276.343 461.184 315.247C462.344 356.054 463.039 359.014 473.241 363.877C478.342 366.414 485.298 363.454 489.472 356.688C491.327 353.728 492.95 339.773 493.645 317.15L494.805 282.263H500.601H506.398L507.094 326.664C507.325 350.979 507.094 373.18 506.398 375.717C505.007 380.791 497.587 382.483 494.805 378.466C493.877 377.197 489.008 376.774 482.284 377.62C474.169 378.466 469.068 378.043 463.735 375.506C455.851 371.7 447.272 360.917 447.272 354.574C447.272 351.402 446.345 350.979 442.171 352.459C433.824 354.997 422.695 354.151 415.971 350.134C408.087 345.482 400.9 334.487 400.9 327.299C400.9 321.802 400.668 321.802 387.683 322.859C376.09 323.704 373.308 323.282 367.511 319.053C354.99 309.961 352.672 301.504 353.135 264.715C353.367 246.531 354.295 230.251 355.454 228.771C356.382 227.291 359.628 226.234 362.178 226.657C367.047 227.291 367.279 228.348 368.439 263.234ZM599.144 397.917C613.519 404.683 629.054 419.695 635.778 433.015C640.879 442.953 640.879 443.799 641.575 609.774C642.27 793.298 642.271 792.029 628.127 810.847C618.62 823.533 606.1 831.99 588.942 837.276C574.798 841.504 571.552 841.716 448.896 841.082L323.225 840.447L310.472 834.95C293.778 827.761 281.258 816.344 273.142 800.486L266.418 787.589V616.962C266.418 447.604 266.418 446.336 271.519 434.707C277.78 419.484 290.3 406.586 306.067 398.552L318.588 392.209L415.971 391.152C469.531 390.517 530.048 390.517 550.452 391.152C584.768 392.209 588.478 392.632 599.144 397.917Z" fill="#E2E2E2"/>
<path d="M326.702 405.74C309.776 410.603 295.401 421.598 286.59 436.398L281.489 445.067V615.271V785.475L286.822 794.989C294.473 808.309 302.82 815.921 316.268 821.63L327.862 826.704H452.141C593.346 826.704 590.1 827.127 608.186 810.212C626.735 793.086 626.039 802.812 625.344 611.888L624.648 442.953L618.388 433.015C614.678 427.729 607.954 420.329 603.317 416.735C586.159 403.838 585.927 403.838 453.3 404.049C386.755 404.049 329.948 404.895 326.702 405.74ZM553.466 426.038C554.161 443.376 547.669 453.947 532.598 459.656C522.164 463.462 521.932 463.462 513.121 459.656C501.528 454.37 493.645 443.587 493.645 433.015C493.645 425.192 494.108 424.769 499.905 425.404C504.774 425.827 506.397 427.729 508.484 434.495C511.266 443.376 520.309 449.93 526.801 447.604C532.83 445.49 537.931 436.61 538.626 426.672C539.322 415.043 541.409 411.872 547.669 412.718C552.075 413.352 552.77 414.832 553.466 426.038ZM463.039 481.011C471.386 487.354 473.936 495.811 470.458 504.48C467.444 511.668 393.711 580.173 383.741 585.036C371.22 590.956 362.641 587.362 339.223 566.007C315.805 544.441 312.559 538.098 318.587 525.2C322.529 516.743 335.281 510.611 345.02 512.726C348.266 513.36 355.917 518.434 361.946 523.932L373.075 533.658L405.073 504.691C435.911 476.993 437.534 475.725 446.808 475.725C453.532 475.725 458.169 477.205 463.039 481.011ZM592.187 642.757V648.043L455.851 648.677C336.209 649.1 319.515 648.677 318.355 645.929C317.428 644.237 317.428 641.277 318.355 639.586C319.515 636.837 336.209 636.414 455.851 636.837L592.187 637.471V642.757ZM592.883 672.146C593.346 674.895 592.419 678.067 590.564 678.912C587.086 681.027 326.702 681.449 321.138 679.547C317.428 678.278 316.037 670.032 319.051 667.495C319.746 666.649 381.654 666.226 456.315 666.438L592.187 667.072L592.883 672.146ZM590.564 697.73C592.651 697.73 593.346 699.844 592.883 703.439L592.187 709.359H455.387C325.543 709.359 318.587 709.147 317.891 705.553C317.428 703.439 318.123 700.69 319.283 699.21C321.369 696.884 389.769 696.461 590.564 697.73ZM593.115 731.136C594.274 733.251 594.506 735.999 593.578 737.479C592.419 739.382 558.335 740.016 457.706 740.016C383.741 740.016 321.833 740.016 320.442 740.016C317.428 740.016 316.268 731.136 319.051 728.81C319.746 727.965 381.422 727.33 455.619 727.33C583.608 727.33 591.028 727.542 593.115 731.136Z" fill="#E2E2E2"/>
<path d="M411.103 520.549C392.554 537.252 375.628 550.995 373.541 551.418C371.223 551.841 364.267 546.978 356.847 540.212C349.891 533.869 342.471 528.583 340.385 528.583C335.516 528.583 332.965 534.081 335.747 538.732C339.225 544.652 370.063 570.87 373.541 570.87C377.019 570.87 454.23 500.886 454.23 497.714C454.23 495.177 449.361 490.525 446.579 490.525C445.419 490.525 429.421 504.057 411.103 520.549Z" fill="#E2E2E2"/>
</g>
<defs>
<filter id="filter0_b_687_162" x="-4" y="-4" width="935" height="1033.55" filterUnits="userSpaceOnUse" color-interpolation-filters="sRGB">
<feFlood flood-opacity="0" result="BackgroundImageFix"/>
<feGaussianBlur in="BackgroundImageFix" stdDeviation="2"/>
<feComposite in2="SourceAlpha" operator="in" result="effect1_backgroundBlur_687_162"/>
<feBlend mode="normal" in="SourceGraphic" in2="effect1_backgroundBlur_687_162" result="shape"/>
</filter>
</defs>
</svg>
