<svg width="180" height="180" viewBox="0 0 180 180" fill="none" xmlns="http://www.w3.org/2000/svg">
<path d="M79.8858 0.268144C71.5448 1.20798 63.1156 3.41071 54.6278 6.90571C48.4895 9.46088 40.031 14.4537 34.2158 18.9473C24.7881 26.2604 15.6835 37.2153 10.2501 47.8178C6.63757 54.7784 5.08097 58.8315 2.90761 66.6145C0.734244 74.5149 0 80.3889 0 90.1103C0.0293698 99.7142 0.587395 104.384 2.79013 112.725C9.48644 137.954 26.5209 158.924 49.8405 170.525C57.6235 174.402 68.1672 177.72 76.2146 178.778C85.0842 179.952 91.0169 180.246 95.8629 179.688C107.288 178.366 108.962 178.043 115.306 176.164C130.284 171.67 142.414 164.445 153.486 153.402C164.588 142.3 172.048 129.789 176.336 114.928C177.951 109.289 178.656 105.618 179.449 98.5981C180.184 91.9606 180.184 87.3789 179.449 80.9469C178.48 72.6059 178.098 70.6381 175.925 63.2369C174.398 58.0091 171.079 50.3142 168.348 45.6151C155.719 23.7933 136.687 9.10844 112.751 2.7352C107.347 1.29609 104.057 0.70869 98.8293 0.238774C94.7175 -0.0842933 83.0871 -0.0842933 79.8858 0.268144ZM100.092 3.0289C125.409 6.20084 147.143 19.2704 161.651 40.0936C174.574 58.6259 179.831 81.8867 176.072 104.002C173.37 120.067 166.615 134.488 156.071 146.765C136.452 169.614 105.849 180.922 76.5964 176.134C64.9659 174.255 54.9508 170.672 45.2588 164.944C26.7265 154.019 12.4528 135.751 6.16765 114.957C2.40832 102.504 1.52723 89.6991 3.55374 76.4533C7.19559 52.282 21.4106 30.2253 41.9107 16.774C46.1105 14.0132 53.1299 10.4007 57.8585 8.52105C71.2217 3.23449 86.1709 1.29609 100.092 3.0289Z" fill="#AC1E25"/>
<circle cx="89.5772" cy="90.2963" r="87.0215" fill="white"/>
<path d="M71.6623 25.0268C71.6623 28.9624 70.5463 31.3707 67.2569 34.6014C64.4374 37.3621 62.2346 38.8306 59.3564 39.7998C55.9201 40.9746 52.3076 40.4753 48.2546 38.2726C46.5805 37.3621 46.4337 37.3328 46.0225 37.7733C45.7875 38.0377 44.4953 40.2404 43.1149 42.6781C38.3864 51.0191 31.6607 62.6495 31.3083 63.0607C31.0733 63.3838 31.1027 63.5306 31.5138 63.7949C36.448 66.7907 37.7109 67.9948 38.8563 70.9318C40.3541 74.7792 39.8549 80.4476 37.7109 83.6195C37.2997 84.2069 36.5948 85.2642 36.1249 85.9691C34.4508 88.4656 34.6858 90.727 37.6228 100.125C45.5526 125.442 61.0011 146.207 84.9668 163.652C89.2842 166.765 89.6954 166.853 92.6911 164.798C99.916 159.922 105.996 154.753 112.78 147.792C128.405 131.786 138.302 114.399 143.354 94.222C144.587 89.2585 144.587 88.2012 143.325 86.2335C139.771 80.6238 138.802 76.7764 139.918 72.6352C140.975 68.6116 144.147 65.3222 147.789 64.4411L148.582 64.2649L145.997 59.7713C144.587 57.3336 142.385 53.5155 141.122 51.3422C139.859 49.1688 137.568 45.2039 136.041 42.5312C134.514 39.8586 133.192 37.5971 133.075 37.4796C132.957 37.3621 131.753 37.8321 130.343 38.5369C124.88 41.2683 120.651 41.0627 115.658 37.744C113.015 36.0111 109.814 32.7217 108.874 30.7833C108.051 29.0505 107.493 26.7303 107.493 24.88V23.7346H89.5779H71.6623V25.0268ZM81.7949 38.4195C81.7949 38.9481 81.5893 39.1831 81.0606 39.3006C80.3851 39.4474 80.3264 39.6236 80.2383 41.3271C80.1795 42.7956 79.974 43.4711 79.3278 44.4109C78.1237 46.2024 77.83 47.3185 77.83 50.2849C77.83 53.1631 77.6244 53.8092 76.7727 53.633C76.0972 53.5155 75.8622 52.3995 75.9503 49.6387C76.0384 46.5549 76.244 45.7913 77.3894 43.8529C78.2705 42.4137 78.4174 41.9145 78.4174 40.3285C78.4174 37.6265 78.5055 37.4796 80.297 37.5971C81.6774 37.6852 81.7949 37.744 81.7949 38.4195ZM100.092 37.8908C100.298 38.0964 100.445 39.0362 100.445 40.0348V41.8264L102.207 43.3536C103.47 44.499 104.233 45.4682 104.997 47.0542C105.966 48.9632 106.113 49.58 106.348 52.6051C106.759 57.6273 107.582 60.5643 109.696 64.2649C111.458 67.4074 109.961 69.7864 106.407 69.4927C105.114 69.3752 104.645 69.1696 103.793 68.3473C103.235 67.7892 102.471 66.8494 102.119 66.2033L101.473 65.0872L101.326 70.7556L101.179 76.4533L100.474 76.5414C100.092 76.6002 99.6517 76.4827 99.5342 76.2477C99.2112 75.7484 99.2112 58.6552 99.5342 58.156C99.6517 57.921 100.092 57.8035 100.445 57.8623C101.032 57.921 101.179 58.2147 101.502 59.7713C101.913 61.7978 103.91 65.8802 104.997 66.9081C105.819 67.7011 107.611 67.7892 108.345 67.0844C108.786 66.6438 108.786 66.5263 108.257 65.6452C105.937 61.7097 104.968 58.5671 104.556 53.6917C104.38 51.8414 104.116 49.8443 103.91 49.2863C103.352 47.5241 101.59 45.1451 100.18 44.2347C98.8294 43.3829 98.8294 43.3829 98.6825 41.4152L98.5357 39.4474L91.2226 39.3887C87.1989 39.3299 83.7627 39.1831 83.6158 39.0362C83.469 38.8894 83.4396 38.5076 83.5571 38.1551C83.7333 37.5384 83.8801 37.5384 91.7512 37.5384C97.5665 37.5384 99.8279 37.6265 100.092 37.8908ZM92.7498 41.8557C92.6617 42.6781 92.6617 42.6781 90.0184 42.7662C87.8451 42.8249 87.3164 42.7662 87.0227 42.355C86.2591 41.3271 86.8465 41.0627 89.9303 41.0627H92.8379L92.7498 41.8557ZM91.8981 43.941C92.368 44.8221 91.7219 45.1745 89.666 45.1745C87.9332 45.1745 87.8157 45.1451 87.8157 44.499C87.8157 43.5004 88.0213 43.4123 89.9009 43.4123C91.252 43.4123 91.6631 43.5298 91.8981 43.941ZM77.83 60.2999C77.9768 65.4984 78.1824 66.4089 79.2985 66.7613C80.1208 67.0256 81.2075 66.262 81.5599 65.2341C81.7068 64.7935 81.883 63.56 81.9124 62.5027C82.0005 60.3881 82.2648 59.8594 83.0578 60.3293C83.469 60.623 83.5864 61.3279 83.7039 65.2341C83.8214 69.1696 83.9389 69.8745 84.4088 70.4031C85.1137 71.1961 85.9948 71.1961 86.8465 70.3738C87.4633 69.7864 87.522 69.4927 87.522 66.5851C87.522 62.8845 87.8157 61.8272 88.7849 61.974C89.431 62.0621 89.431 62.1209 89.5779 67.5249C89.7247 73.1933 89.8128 73.6045 91.1051 74.28C91.7512 74.6324 92.6323 74.2212 93.161 73.2814C93.396 72.8702 93.6015 70.9318 93.6896 67.7892L93.8365 62.9432H94.5707H95.305L95.3931 69.1109C95.4225 72.4884 95.3931 75.5722 95.305 75.9247C95.1288 76.6295 94.1889 76.8645 93.8365 76.3065C93.719 76.1303 93.1023 76.0715 92.2505 76.189C91.2226 76.3065 90.5764 76.2477 89.9009 75.8953C88.9024 75.3666 87.8157 73.8688 87.8157 72.9877C87.8157 72.5471 87.6982 72.4884 87.1696 72.694C86.1122 73.0464 84.7025 72.9289 83.8508 72.3709C82.8522 71.7248 81.9417 70.1976 81.9417 69.199C81.9417 68.4354 81.9124 68.4354 80.2677 68.5822C78.7992 68.6997 78.4467 68.641 77.7125 68.0536C76.1265 66.7907 75.8328 65.6159 75.8916 60.5055C75.9209 57.9797 76.0384 55.7183 76.1853 55.5127C76.3027 55.3071 76.7139 55.1602 77.037 55.219C77.6537 55.3071 77.6831 55.4539 77.83 60.2999ZM107.053 79.0085C108.874 79.9483 110.842 82.0336 111.693 83.8839C112.339 85.2642 112.339 85.3817 112.428 108.437C112.516 133.93 112.516 133.754 110.724 136.368C109.52 138.13 107.934 139.305 105.761 140.039C103.969 140.626 103.558 140.656 88.0213 140.568L72.1029 140.479L70.4875 139.716C68.3729 138.717 66.7869 137.131 65.759 134.929L64.9073 133.137V109.436C64.9073 85.9104 64.9073 85.7342 65.5534 84.1188C66.3464 82.0042 67.9324 80.2126 69.9295 79.0966L71.5155 78.2155L83.8508 78.0687C90.6352 77.9805 98.3007 77.9805 100.885 78.0687C105.232 78.2155 105.702 78.2742 107.053 79.0085Z" fill="#AC1E25"/>
<path d="M72.5428 80.0952C70.3988 80.7707 68.5779 82.2979 67.4618 84.3538L66.8157 85.558V109.201V132.843L67.4912 134.165C68.4604 136.015 69.5177 137.073 71.2211 137.866L72.6896 138.57H88.4318C106.318 138.57 105.907 138.629 108.198 136.28C110.547 133.901 110.459 135.252 110.371 108.731L110.283 85.2643L109.49 83.8839C109.02 83.1497 108.168 82.1217 107.581 81.6224C105.408 79.8309 105.378 79.8309 88.5787 79.8602C80.1495 79.8602 72.954 79.9777 72.5428 80.0952ZM101.266 82.9147C101.355 85.323 100.532 86.7915 98.6231 87.5845C97.3015 88.1132 97.2721 88.1132 96.1561 87.5845C94.6876 86.8502 93.689 85.3524 93.689 83.8839C93.689 82.7972 93.7478 82.7385 94.482 82.8266C95.0988 82.8853 95.3044 83.1497 95.5687 84.0895C95.9211 85.323 97.0665 86.2335 97.8889 85.9104C98.6525 85.6167 99.2986 84.3832 99.3867 83.0028C99.4749 81.3875 99.7392 80.9469 100.532 81.0644C101.09 81.1525 101.178 81.3581 101.266 82.9147ZM89.8122 90.5508C90.8695 91.4319 91.1926 92.6067 90.752 93.8109C90.3702 94.8095 81.0306 104.325 79.7677 105.001C78.1818 105.823 77.0951 105.324 74.1287 102.357C71.1624 99.3618 70.7512 98.4807 71.5148 96.6891C72.0141 95.5143 73.6295 94.6626 74.863 94.9563C75.2742 95.0444 76.2434 95.7493 77.007 96.5129L78.4167 97.8639L82.4698 93.8403C86.3759 89.9928 86.5815 89.8166 87.7563 89.8166C88.608 89.8166 89.1954 90.0222 89.8122 90.5508ZM106.171 113.019V113.753L88.9017 113.841C73.7469 113.9 71.6323 113.841 71.4855 113.459C71.368 113.224 71.368 112.813 71.4855 112.578C71.6323 112.196 73.7469 112.138 88.9017 112.196L106.171 112.284V113.019ZM106.259 117.101C106.318 117.483 106.201 117.923 105.966 118.041C105.525 118.335 72.5428 118.393 71.8379 118.129C71.368 117.953 71.1918 116.807 71.5736 116.455C71.6617 116.338 79.5034 116.279 88.9605 116.308L106.171 116.396L106.259 117.101ZM105.966 120.655C106.23 120.655 106.318 120.949 106.259 121.448L106.171 122.27H88.843C72.3959 122.27 71.5148 122.241 71.4267 121.742C71.368 121.448 71.4561 121.066 71.6029 120.86C71.8673 120.537 80.5314 120.479 105.966 120.655ZM106.289 125.295C106.435 125.589 106.465 125.971 106.347 126.176C106.201 126.441 101.883 126.529 89.1367 126.529C79.7677 126.529 71.926 126.529 71.7498 126.529C71.368 126.529 71.2211 125.295 71.5736 124.972C71.6617 124.855 79.474 124.767 88.8724 124.767C105.084 124.767 106.024 124.796 106.289 125.295Z" fill="#AC1E25"/>
<path d="M83.2349 96.0428C80.8852 98.363 78.7412 100.272 78.4769 100.331C78.1832 100.39 77.3021 99.7141 76.3622 98.7742C75.4811 97.8931 74.5413 97.1588 74.2769 97.1588C73.6601 97.1588 73.3371 97.9225 73.6895 98.5686C74.1301 99.391 78.0363 103.033 78.4769 103.033C78.9174 103.033 88.6977 93.3113 88.6977 92.8708C88.6977 92.5183 88.081 91.8722 87.7285 91.8722C87.5817 91.8722 85.5551 93.7519 83.2349 96.0428Z" fill="#AC1E25"/>
</svg>
