<?xml version="1.0" standalone="no"?>
<!DOCTYPE svg PUBLIC "-//W3C//DTD SVG 20010904//EN"
 "http://www.w3.org/TR/2001/REC-SVG-20010904/DTD/svg10.dtd">
<svg version="1.0" xmlns="http://www.w3.org/2000/svg"
 width="640.000000pt" height="640.000000pt" viewBox="0 0 640.000000 640.000000"
 preserveAspectRatio="xMidYMid meet">

<g transform="translate(0.000000,640.000000) scale(0.100000,-0.100000)"
fill="#000000" stroke="none">
<path d="M2870 6239 c-284 -32 -571 -107 -860 -226 -209 -87 -497 -257 -695
-410 -321 -249 -631 -622 -816 -983 -123 -237 -176 -375 -250 -640 -74 -269
-99 -469 -99 -800 1 -327 20 -486 95 -770 228 -859 808 -1573 1602 -1968 265
-132 624 -245 898 -281 302 -40 504 -50 669 -31 389 45 446 56 662 120 510
153 923 399 1300 775 378 378 632 804 778 1310 55 192 79 317 106 556 25 226
25 382 0 601 -33 284 -46 351 -120 603 -52 178 -165 440 -258 600 -430 743
-1078 1243 -1893 1460 -184 49 -296 69 -474 85 -140 11 -536 11 -645 -1z m688
-94 c862 -108 1602 -553 2096 -1262 440 -631 619 -1423 491 -2176 -92 -547
-322 -1038 -681 -1456 -668 -778 -1710 -1163 -2706 -1000 -396 64 -737 186
-1067 381 -631 372 -1117 994 -1331 1702 -128 424 -158 860 -89 1311 124 823
608 1574 1306 2032 143 94 382 217 543 281 455 180 964 246 1438 187z"/>
<path d="M2590 5396 c0 -134 -38 -216 -150 -326 -96 -94 -171 -144 -269 -177
-117 -40 -240 -23 -378 52 -57 31 -62 32 -76 17 -8 -9 -52 -84 -99 -167 -161
-284 -390 -680 -402 -694 -8 -11 -7 -16 7 -25 168 -102 211 -143 250 -243 51
-131 34 -324 -39 -432 -14 -20 -38 -56 -54 -80 -57 -85 -49 -162 51 -482 270
-862 796 -1569 1612 -2163 147 -106 161 -109 263 -39 246 166 453 342 684 579
532 545 869 1137 1041 1824 42 169 42 205 -1 272 -121 191 -154 322 -116 463
36 137 144 249 268 279 l27 6 -88 153 c-48 83 -123 213 -166 287 -43 74 -121
209 -173 300 -52 91 -97 168 -101 172 -4 4 -45 -12 -93 -36 -186 -93 -330 -86
-500 27 -90 59 -199 171 -231 237 -28 59 -47 138 -47 201 l0 39 -610 0 -610 0
0 -44z m345 -456 c0 -18 -7 -26 -25 -30 -23 -5 -25 -11 -28 -69 -2 -50 -9 -73
-31 -105 -41 -61 -51 -99 -51 -200 0 -98 -7 -120 -36 -114 -23 4 -31 42 -28
136 3 105 10 131 49 197 30 49 35 66 35 120 0 92 3 97 64 93 47 -3 51 -5 51
-28z m623 18 c7 -7 12 -39 12 -73 l0 -61 60 -52 c43 -39 69 -72 95 -126 33
-65 38 -86 46 -189 14 -171 42 -271 114 -397 60 -107 9 -188 -112 -178 -44 4
-60 11 -89 39 -19 19 -45 51 -57 73 l-22 38 -5 -193 -5 -194 -24 -3 c-13 -2
-28 2 -32 10 -11 17 -11 599 0 616 4 8 19 12 31 10 20 -2 25 -12 36 -65 14
-69 82 -208 119 -243 28 -27 89 -30 114 -6 15 15 15 19 -3 49 -79 134 -112
241 -126 407 -6 63 -15 131 -22 150 -19 60 -79 141 -127 172 -46 29 -46 29
-51 96 l-5 67 -249 2 c-137 2 -254 7 -259 12 -5 5 -6 18 -2 30 6 21 11 21 279
21 198 0 275 -3 284 -12z m-250 -135 c-3 -28 -3 -28 -93 -31 -74 -2 -92 0
-102 14 -26 35 -6 44 99 44 l99 0 -3 -27z m-29 -71 c16 -30 -6 -42 -76 -42
-59 0 -63 1 -63 23 0 34 7 37 71 37 46 0 60 -4 68 -18z m-479 -557 c5 -177 12
-208 50 -220 28 -9 65 17 77 52 5 15 11 57 12 93 3 72 12 90 39 74 14 -10 18
-34 22 -167 4 -134 8 -158 24 -176 24 -27 54 -27 83 1 21 20 23 30 23 129 0
126 10 162 43 157 22 -3 22 -5 27 -189 5 -193 8 -207 52 -230 22 -12 52 2 70
34 8 14 15 80 18 187 l5 165 25 0 25 0 3 -210 c1 -115 0 -220 -3 -232 -6 -24
-38 -32 -50 -13 -4 6 -25 8 -54 4 -35 -4 -57 -2 -80 10 -34 18 -71 69 -71 99
0 15 -4 17 -22 10 -36 -12 -84 -8 -113 11 -34 22 -65 74 -65 108 0 26 -1 26
-57 21 -50 -4 -62 -2 -87 18 -54 43 -64 83 -62 257 1 86 5 163 10 170 4 7 18
12 29 10 21 -3 22 -8 27 -173z m995 -637 c62 -32 129 -103 158 -166 22 -47 22
-51 25 -836 3 -868 3 -862 -58 -951 -41 -60 -95 -100 -169 -125 -61 -20 -75
-21 -604 -18 l-542 3 -55 26 c-72 34 -126 88 -161 163 l-29 61 0 807 c0 801 0
807 22 862 27 72 81 133 149 171 l54 30 420 5 c231 3 492 3 580 0 148 -5 164
-7 210 -32z"/>
<path d="M2620 3521 c-73 -23 -135 -75 -173 -145 l-22 -41 0 -805 0 -805 23
-45 c33 -63 69 -99 127 -126 l50 -24 536 0 c609 0 595 -2 673 78 80 81 77 35
74 938 l-3 799 -27 47 c-16 25 -45 60 -65 77 -74 61 -75 61 -647 60 -287 0
-532 -4 -546 -8z m978 -96 c3 -82 -25 -132 -90 -159 -45 -18 -46 -18 -84 0
-50 25 -84 76 -84 126 0 37 2 39 27 36 21 -2 28 -11 37 -43 12 -42 51 -73 79
-62 26 10 48 52 51 99 3 55 12 70 39 66 19 -3 22 -10 25 -63z m-390 -260 c36
-30 47 -70 32 -111 -13 -34 -331 -358 -374 -381 -54 -28 -91 -11 -192 90 -101
102 -115 132 -89 193 17 40 72 69 114 59 14 -3 47 -27 73 -53 l48 -46 138 137
c133 131 140 137 180 137 29 0 49 -7 70 -25z m557 -765 l0 -25 -588 -3 c-516
-2 -588 0 -593 13 -4 8 -4 22 0 30 5 13 77 15 593 13 l588 -3 0 -25z m3 -139
c2 -13 -2 -28 -10 -32 -15 -10 -1138 -12 -1162 -3 -16 6 -22 45 -9 57 3 4 270
6 592 5 l586 -3 3 -24z m-10 -121 c9 0 12 -10 10 -27 l-3 -28 -590 0 c-560 0
-590 1 -593 18 -2 10 1 23 6 30 9 11 304 13 1170 7z m11 -158 c5 -10 6 -23 2
-30 -5 -9 -152 -12 -586 -12 -319 0 -586 0 -592 0 -13 0 -18 42 -6 53 3 4 269
7 589 7 552 0 584 -1 593 -18z"/>
<path d="M2984 2978 c-80 -79 -153 -144 -162 -146 -10 -2 -40 21 -72 53 -30
30 -62 55 -71 55 -21 0 -32 -26 -20 -48 15 -28 148 -152 163 -152 15 0 348
331 348 346 0 12 -21 34 -33 34 -5 0 -74 -64 -153 -142z"/>
</g>
</svg>
