<?xml version="1.0" standalone="no"?>
<!DOCTYPE svg PUBLIC "-//W3C//DTD SVG 20010904//EN"
 "http://www.w3.org/TR/2001/REC-SVG-20010904/DTD/svg10.dtd">
<svg version="1.0" xmlns="http://www.w3.org/2000/svg"
 width="442.000000pt" height="425.000000pt" viewBox="0 0 442.000000 425.000000"
 preserveAspectRatio="xMidYMid meet">

<g transform="translate(0.000000,425.000000) scale(0.100000,-0.100000)"
fill="#000000" stroke="none">
<path d="M1555 4230 c-286 -61 -543 -261 -737 -572 -58 -93 -147 -276 -172
-355 -20 -61 -24 -65 -101 -94 -82 -30 -123 -58 -177 -118 -84 -93 -208 -325
-317 -590 l-51 -124 0 -637 0 -637 30 -38 c17 -21 40 -53 51 -72 25 -41 16
-57 -42 -75 l-39 -11 0 -454 0 -453 1765 0 c971 0 1765 2 1765 5 0 12 -97 184
-132 235 -48 70 -103 116 -236 198 -59 35 -126 78 -149 94 -72 49 -52 86 63
118 161 44 396 166 527 273 92 75 86 72 195 91 111 19 177 51 225 107 46 54
53 86 31 154 -9 31 -15 57 -13 59 2 1 39 27 82 56 44 30 90 70 103 89 43 63
28 143 -37 194 -27 21 -34 37 -49 108 -38 176 -84 259 -224 399 l-88 87 69 38
c121 67 189 121 235 187 36 52 54 68 107 93 71 34 91 56 91 97 0 18 15 44 46
79 l47 53 -7 74 c-3 41 -6 95 -6 119 0 37 -6 50 -39 86 -21 23 -44 60 -51 82
-15 48 -38 74 -94 110 -23 15 -53 45 -67 66 -22 37 -82 90 -153 135 -16 10
-81 39 -144 64 l-115 46 -19 75 c-51 197 -179 374 -322 444 -220 109 -504 82
-836 -77 -118 -57 -126 -60 -150 -46 -14 9 -64 40 -113 71 -96 61 -199 107
-322 145 -67 20 -105 25 -235 28 -85 1 -173 -1 -195 -6z m2495 -1170 c110 -12
233 -43 278 -70 37 -23 72 -86 72 -131 0 -66 -75 -126 -190 -153 -35 -8 -66
-14 -68 -11 -2 2 -12 34 -21 72 -36 138 -83 203 -174 244 -44 20 -68 24 -157
24 -95 0 -111 -3 -168 -29 -124 -57 -183 -151 -198 -315 l-7 -74 -96 6 c-53 4
-148 16 -211 27 -95 17 -119 25 -137 45 -20 23 -21 27 -8 59 8 18 21 63 31 99
l16 65 113 32 c353 97 676 136 925 110z m-1161 -29 c54 -5 67 -10 85 -34 19
-26 19 -32 8 -100 -7 -39 -23 -95 -36 -123 -21 -47 -29 -53 -90 -79 -39 -17
-70 -25 -75 -19 -4 5 -17 35 -29 67 -43 114 -110 183 -208 213 -94 28 -262 11
-354 -36 -102 -52 -148 -130 -158 -262 l-5 -79 -31 7 c-55 12 -191 64 -269
103 -80 40 -197 112 -197 121 0 3 59 14 132 24 72 10 244 46 382 81 139 35
290 71 336 79 47 8 108 20 135 25 97 20 247 25 374 12z m830 -100 c8 -5 14
-24 14 -41 0 -53 -47 -63 -85 -18 -25 28 -23 37 15 53 38 17 38 17 56 6z
m-1401 -53 c17 -17 15 -52 -6 -78 l-18 -22 -32 27 c-36 30 -39 41 -15 67 18
21 53 24 71 6z m1606 -77 c20 -22 14 -61 -14 -86 -29 -26 -67 -12 -88 31 -16
35 -16 36 7 55 30 24 73 24 95 0z m-1361 -39 c24 -21 21 -49 -8 -77 -29 -30
-68 -32 -95 -5 -22 22 -27 72 -7 88 28 23 79 20 110 -6z m1127 -55 c0 -18 -21
-37 -41 -37 -26 0 -36 40 -14 56 20 15 55 2 55 -19z m-1370 -46 c15 -29 13
-37 -15 -49 -21 -10 -27 -8 -39 10 -13 19 -13 22 7 39 28 23 34 23 47 0z"/>
</g>
</svg>
